<?xml version="1.0" encoding="utf-8"?>
<!-- Generator: Adobe Illustrator 27.5.0, SVG Export Plug-In . SVG Version: 6.00 Build 0)  -->
<svg version="1.1" id="Layer_1" xmlns="http://www.w3.org/2000/svg" xmlns:xlink="http://www.w3.org/1999/xlink" x="0px" y="0px"
	 viewBox="0 0 7000 4000" style="enable-background:new 0 0 7000 4000;" xml:space="preserve">
<g>
	<g>
		<defs>
			<rect id="SVGID_1_" x="1.206" y="1.144" width="6997.997" height="3998.856"/>
		</defs>
		<clipPath id="SVGID_00000067927961645811446770000013938933098803246483_">
			<use xlink:href="#SVGID_1_"  style="overflow:visible;"/>
		</clipPath>
		
			<linearGradient id="SVGID_00000163037997177892607250000002677047611254554544_" gradientUnits="userSpaceOnUse" x1="3325.2036" y1="12851.1729" x2="3511.1199" y2="1323.7941">
			<stop  offset="0" style="stop-color:#890028"/>
			<stop  offset="1" style="stop-color:#0C0C0E"/>
		</linearGradient>
		
			<rect x="1.206" y="1.144" style="clip-path:url(#SVGID_00000067927961645811446770000013938933098803246483_);fill:url(#SVGID_00000163037997177892607250000002677047611254554544_);" width="6997.997" height="3998.856"/>
	</g>
	<g>
		<defs>
			<path id="SVGID_00000028305916526773752690000017458345261704463795_" d="M831.771,1.144H1.206v2887.761
				c727.312-180.516,1269.005-873.41,1269.005-1700.63C1270.211,729.871,1103.866,312.716,831.771,1.144"/>
		</defs>
		<clipPath id="SVGID_00000181066519457476126100000004299732099809272723_">
			<use xlink:href="#SVGID_00000028305916526773752690000017458345261704463795_"  style="overflow:visible;"/>
		</clipPath>
		
			<linearGradient id="SVGID_00000018921846559976502810000002873137009378511270_" gradientUnits="userSpaceOnUse" x1="2571.3848" y1="2625.25" x2="-90.7643" y2="1002.0776">
			<stop  offset="0" style="stop-color:#890028"/>
			<stop  offset="1" style="stop-color:#0C0C0E"/>
		</linearGradient>
		
			<rect x="1.206" y="1.144" style="clip-path:url(#SVGID_00000181066519457476126100000004299732099809272723_);fill:url(#SVGID_00000018921846559976502810000002873137009378511270_);" width="1269.005" height="2887.761"/>
	</g>
	<g>
		<defs>
			<path id="SVGID_00000132808244596481837650000016260253346720967821_" d="M1270.211,1188.275
				c0,827.22-541.693,1520.114-1269.005,1700.63v939.599c962.748-261.406,1674.515-1188.545,1674.515-2292.187
				c0-585.855-200.567-1121.973-532.778-1535.174H831.771C1103.866,312.716,1270.211,729.871,1270.211,1188.275"/>
		</defs>
		<clipPath id="SVGID_00000121965474540985711370000016722629424262621071_">
			<use xlink:href="#SVGID_00000132808244596481837650000016260253346720967821_"  style="overflow:visible;"/>
		</clipPath>
		
			<linearGradient id="SVGID_00000133490703714068644210000012522539654459617711_" gradientUnits="userSpaceOnUse" x1="3479.9839" y1="3387.5701" x2="145.5082" y2="1528.4751">
			<stop  offset="0" style="stop-color:#890028"/>
			<stop  offset="1" style="stop-color:#0C0C0E"/>
		</linearGradient>
		
			<rect x="1.206" y="1.144" style="clip-path:url(#SVGID_00000121965474540985711370000016722629424262621071_);fill:url(#SVGID_00000133490703714068644210000012522539654459617711_);" width="1674.515" height="3827.36"/>
	</g>
	<g>
		<defs>
			<path id="SVGID_00000061468204773760751710000005803160199077179324_" d="M1142.943,1.144
				c332.211,413.201,532.778,949.319,532.778,1535.174c0,869.482-441.776,1629.414-1100.014,2040.566
				c1090.882-153.543,1932.621-1144.993,1932.621-2345.177c0-450.737-118.721-872.034-324.776-1230.563H1142.943z"/>
		</defs>
		<clipPath id="SVGID_00000157993103979307228610000008001212931404297875_">
			<use xlink:href="#SVGID_00000061468204773760751710000005803160199077179324_"  style="overflow:visible;"/>
		</clipPath>
		
			<linearGradient id="SVGID_00000083778285779827591780000001069647966454086053_" gradientUnits="userSpaceOnUse" x1="4252.5376" y1="3655.8826" x2="830.9243" y2="1299.2483">
			<stop  offset="0" style="stop-color:#890028"/>
			<stop  offset="1" style="stop-color:#0C0C0E"/>
		</linearGradient>
		
			<rect x="575.708" y="1.144" style="clip-path:url(#SVGID_00000157993103979307228610000008001212931404297875_);fill:url(#SVGID_00000083778285779827591780000001069647966454086053_);" width="1932.621" height="3575.74"/>
	</g>
	<g>
		<defs>
			<path id="SVGID_00000083059269795244670280000001237525325717104792_" d="M2508.329,1231.706
				c0,1200.184-841.74,2191.634-1932.621,2345.177c-177.268,110.727-370.236,196.158-574.501,251.62V4000H2307
				c382.695-424.808,617.771-1000.771,617.771-1635.026c0-522.815-159.727-1006.023-430.196-1397.612
				C2503.662,1054.147,2508.329,1142.348,2508.329,1231.706"/>
		</defs>
		<clipPath id="SVGID_00000127742029140728998500000013597293385665067919_">
			<use xlink:href="#SVGID_00000083059269795244670280000001237525325717104792_"  style="overflow:visible;"/>
		</clipPath>
		
			<linearGradient id="SVGID_00000123429112953726917650000000714931976906164660_" gradientUnits="userSpaceOnUse" x1="3301.0923" y1="6438.3125" x2="1394.024" y2="2335.3059">
			<stop  offset="0" style="stop-color:#890028"/>
			<stop  offset="1" style="stop-color:#0C0C0E"/>
		</linearGradient>
		
			<rect x="1.206" y="967.362" style="clip-path:url(#SVGID_00000127742029140728998500000013597293385665067919_);fill:url(#SVGID_00000123429112953726917650000000714931976906164660_);" width="2923.564" height="3032.638"/>
	</g>
	<g>
		<defs>
			<path id="SVGID_00000168832325671479223780000018378821752468340881_" d="M6168.639,1.144h830.564v2887.761
				c-727.312-180.516-1269.003-873.41-1269.003-1700.63C5730.2,729.871,5896.544,312.716,6168.639,1.144"/>
		</defs>
		<clipPath id="SVGID_00000022523530437048201470000006789666111033514635_">
			<use xlink:href="#SVGID_00000168832325671479223780000018378821752468340881_"  style="overflow:visible;"/>
		</clipPath>
		
			<linearGradient id="SVGID_00000088112312605376526230000015411313637809848715_" gradientUnits="userSpaceOnUse" x1="4429.0264" y1="2625.2493" x2="7091.1738" y2="1002.0779">
			<stop  offset="0" style="stop-color:#890028"/>
			<stop  offset="1" style="stop-color:#0C0C0E"/>
		</linearGradient>
		
			<rect x="5730.2" y="1.144" style="clip-path:url(#SVGID_00000022523530437048201470000006789666111033514635_);fill:url(#SVGID_00000088112312605376526230000015411313637809848715_);" width="1269.003" height="2887.761"/>
	</g>
	<g>
		<defs>
			<path id="SVGID_00000075848125066325590290000018231661670564437158_" d="M5730.2,1188.275
				c0,827.22,541.691,1520.114,1269.003,1700.63v939.599c-962.748-261.406-1674.515-1188.545-1674.515-2292.187
				c0-585.855,200.568-1121.973,532.778-1535.174h311.172C5896.544,312.716,5730.2,729.871,5730.2,1188.275"/>
		</defs>
		<clipPath id="SVGID_00000098918578263707813090000011998570124827010751_">
			<use xlink:href="#SVGID_00000075848125066325590290000018231661670564437158_"  style="overflow:visible;"/>
		</clipPath>
		
			<linearGradient id="SVGID_00000093880327761566846230000000259473435275897233_" gradientUnits="userSpaceOnUse" x1="3520.4285" y1="3387.5684" x2="6854.9043" y2="1528.4735">
			<stop  offset="0" style="stop-color:#890028"/>
			<stop  offset="1" style="stop-color:#0C0C0E"/>
		</linearGradient>
		
			<rect x="5324.688" y="1.144" style="clip-path:url(#SVGID_00000098918578263707813090000011998570124827010751_);fill:url(#SVGID_00000093880327761566846230000000259473435275897233_);" width="1674.515" height="3827.36"/>
	</g>
	<g>
		<defs>
			<path id="SVGID_00000057830323611675920070000013194062936704011416_" d="M5857.466,1.144
				c-332.21,413.201-532.778,949.319-532.778,1535.174c0,869.482,441.778,1629.414,1100.014,2040.566
				c-1090.881-153.543-1932.62-1144.993-1932.62-2345.177c0-450.737,118.72-872.034,324.774-1230.563H5857.466z"/>
		</defs>
		<clipPath id="SVGID_00000119109813968064148790000016471045838937057468_">
			<use xlink:href="#SVGID_00000057830323611675920070000013194062936704011416_"  style="overflow:visible;"/>
		</clipPath>
		
			<linearGradient id="SVGID_00000171695098930519781450000013925641191971445907_" gradientUnits="userSpaceOnUse" x1="2747.876" y1="3655.8796" x2="6169.4883" y2="1299.2465">
			<stop  offset="0" style="stop-color:#890028"/>
			<stop  offset="1" style="stop-color:#0C0C0E"/>
		</linearGradient>
		
			<rect x="4492.082" y="1.144" style="clip-path:url(#SVGID_00000119109813968064148790000016471045838937057468_);fill:url(#SVGID_00000171695098930519781450000013925641191971445907_);" width="1932.62" height="3575.74"/>
	</g>
	<g>
		<defs>
			<path id="SVGID_00000124859577616441944430000015250239252847786393_" d="M4492.082,1231.706
				c0,1200.184,841.738,2191.634,1932.62,2345.177c177.268,110.727,370.236,196.158,574.501,251.62V4000H4693.41
				c-382.694-424.808-617.771-1000.771-617.771-1635.026c0-522.815,159.727-1006.023,430.196-1397.612
				C4496.747,1054.147,4492.082,1142.348,4492.082,1231.706"/>
		</defs>
		<clipPath id="SVGID_00000036966382363880718980000005694379564771905212_">
			<use xlink:href="#SVGID_00000124859577616441944430000015250239252847786393_"  style="overflow:visible;"/>
		</clipPath>
		
			<linearGradient id="SVGID_00000093174038969955837720000016633687596391283081_" gradientUnits="userSpaceOnUse" x1="3699.3169" y1="6438.3125" x2="5606.3853" y2="2335.3059">
			<stop  offset="0" style="stop-color:#890028"/>
			<stop  offset="1" style="stop-color:#0C0C0E"/>
		</linearGradient>
		
			<rect x="4075.639" y="967.362" style="clip-path:url(#SVGID_00000036966382363880718980000005694379564771905212_);fill:url(#SVGID_00000093174038969955837720000016633687596391283081_);" width="2923.564" height="3032.638"/>
	</g>
</g>
</svg>
